PathFileType	4	(X/Y/Z)	c:\Git\powerlifing_model_clean\simulations\HC835B\Session1\HC835B_OGW_0003\marker_experimental.trc
DataRate	CameraRate	NumFrames	NumMarkers	Units	OrigDataRate	OrigDataStartFrame	OrigNumFrames
240.000000	240.000000	4	38	mm	240.000000	374	428
Frame#	Time	RPSI			LPSI			RASI			LASI			RTH1			RTH2			RTH3			RTH4			RSK1			RSK2			RSK3			RSK4			RCAL1			RCAL2			RCAL3			RST			RPT			RTN			RFMB			RSMB			RVMB			RFMH			RSMH			RVMH			RPM			LTH1			LTH2			LTH3			LTH4			LSK1			LSK2			LSK3			LSK4			LCAL1			LCAL2			LCAL3			LFMH			LVMH			
		X1	Y1	Z1	X2	Y2	Z2	X3	Y3	Z3	X4	Y4	Z4	X5	Y5	Z5	X6	Y6	Z6	X7	Y7	Z7	X8	Y8	Z8	X9	Y9	Z9	X10	Y10	Z10	X11	Y11	Z11	X12	Y12	Z12	X13	Y13	Z13	X14	Y14	Z14	X15	Y15	Z15	X16	Y16	Z16	X17	Y17	Z17	X18	Y18	Z18	X19	Y19	Z19	X20	Y20	Z20	X21	Y21	Z21	X22	Y22	Z22	X23	Y23	Z23	X24	Y24	Z24	X25	Y25	Z25	X26	Y26	Z26	X27	Y27	Z27	X28	Y28	Z28	X29	Y29	Z29	X30	Y30	Z30	X31	Y31	Z31	X32	Y32	Z32	X33	Y33	Z33	X34	Y34	Z34	X35	Y35	Z35	X36	Y36	Z36	X37	Y37	Z37	X38	Y38	Z38	

375	1.558333333333333	465.795623779297	1121.108642578125	-3.385800600051881	572.8313598632814	1108.306274414063	-2.660972833633423	389.5345153808595	1069.841552734375	200.096664428711	636.5021362304689	1060.277465820313	207.1464843750001	335.9823608398438	808.9821777343752	67.01699829101564	350.1838684082032	783.3221435546877	120.7421340942383	352.8640747070313	725.6870117187501	69.1438674926758	377.3257141113282	702.9024658203126	117.883056640625	419.5418090820314	310.9881286621094	-150.5286865234375	416.9718627929689	279.0311889648438	-97.82752227783206	426.3565979003907	252.981674194336	-152.1322631835938	436.8085327148439	223.9352722167969	-100.6576004028321	496.9026489257814	113.8422317504883	-249.8343811035157	527.7453002929689	74.14002990722658	-242.7693023681641	464.0001831054689	76.88931274414064	-251.6986389160157	536.6284790039064	81.91377258300783	-172.830322265625	435.5419311523439	83.02161407470705	-193.4977264404297	519.0093383789064	96.46611785888675	-116.4124145507813	510.4248352050782	78.40403747558595	-86.17463684082033	461.7777404785157	102.361328125	-79.79586791992189	420.869354248047	54.1549644470215	-153.9544219970703	505.9721069335939	51.31281661987306	-35.07006835937501	451.3341064453126	63.2641067504883	-24.99019622802735	395.3280029296876	42.79148864746094	-79.35650634765626	458.2366638183595	46.94343948364259	34.17788314819337	711.2145996093751	785.2069091796877	194.5040435791016	702.9494018554689	794.9272460937502	253.6984100341797	703.7266845703126	714.6266479492189	242.3987274169922	682.2562255859376	725.0626831054689	299.0104675292969	677.2957153320314	293.6828613281251	380.1257934570313	687.0397949218751	302.0764770507813	431.7993469238282	678.0620117187501	253.7633819580079	420.397918701172	672.8459472656251	266.7716674804688	475.2195129394532	619.3888549804689	96.89035797119143	452.0745849609376	648.2645874023439	62.40270996093751	466.5635375976564	589.3647460937501	68.42117309570314	472.5580444335939	607.2322998046876	172.3980712890625	665.8231811523439	705.9747924804689	124.2591400146485	641.0762329101564	
376	1.5625	466.0825805664064	1119.447509765625	3.662270069122315	573.1541137695314	1106.805419921875	4.279546260833741	389.6627502441407	1068.607177734375	207.1774291992188	636.3256225585939	1058.865478515625	214.2811737060547	336.0039367675782	808.0404052734377	72.7316131591797	349.8826904296876	782.2792968750002	126.4866409301758	352.7792053222657	724.8444824218751	74.5336380004883	376.9139709472657	701.8139038085939	123.3807907104492	419.408416748047	311.6483459472657	-147.953369140625	416.8893127441407	279.1836242675782	-95.75945281982423	425.8554992675782	253.9116210937501	-149.8782348632813	436.8060913085939	223.9716339111329	-99.15520477294925	496.6883850097657	115.1590118408203	-249.1629943847657	527.6185302734376	75.51221466064455	-242.3662414550782	463.8258361816407	78.28244018554689	-251.2398986816407	536.3865356445314	82.83261871337892	-172.4645385742188	435.3486328125001	83.87146759033205	-193.1016693115235	518.8004150390626	96.94414520263675	-115.9392395019532	510.2366638183595	78.70867156982423	-85.79827880859376	461.5830383300782	102.4086456298828	-79.34119415283205	420.7578430175782	54.78187561035158	-153.5699310302735	505.8816528320314	51.31472015380861	-34.92202758789063	451.1879882812501	63.01937484741212	-24.76822090148926	395.236541748047	42.78923034667969	-79.30326080322267	458.1382446289064	46.74652862548829	34.27769470214844	711.7406616210939	783.327087402344	201.3598327636719	703.3563842773439	793.4030761718752	260.4891052246094	703.6531982421876	713.1803588867189	249.6289825439454	682.2907104492189	723.8875732421876	306.1377868652344	676.5665283203126	292.1189270019532	388.5532531738282	686.1599731445314	301.0909118652344	440.2039794921876	677.0998535156251	252.7195434570313	429.2684020996095	671.9344482421876	266.2293090820313	483.9780273437501	617.0834350585939	95.18945312500001	463.4266662597657	645.4218750000001	60.79552459716798	478.3592224121095	586.7626953125001	68.07537078857423	484.4285888671876	607.0857543945314	175.616683959961	675.4673461914064	704.7423095703126	125.2322082519532	651.4550170898439	
377	1.566666666666667	466.2416992187501	1117.796264648438	10.70610141754151	573.4707641601564	1105.219970703125	11.22720432281494	389.608612060547	1067.220581054688	214.3353881835938	636.1468505859376	1057.51904296875	221.3773040771485	336.0306396484376	807.0491333007815	78.48956298828126	349.6422119140626	781.1213378906252	132.1858673095703	352.7596130371094	723.9454345703126	79.95940399169923	376.4228515625001	700.5141601562501	128.8978729248047	419.3567199707032	312.2374877929688	-145.403076171875	416.7035522460939	279.2831115722657	-93.40841674804689	425.7510070800782	254.6658782958985	-147.9349822998047	433.5863342285157	225.9909210205079	-97.4757995605469	496.4496154785157	116.6709823608399	-248.4530792236329	527.4224243164064	77.03691864013673	-241.9656524658204	463.5062255859376	79.60959625244142	-250.7474670410157	536.2116088867189	83.96228790283205	-171.9701385498047	435.1459960937501	84.78669738769533	-192.7533569335938	518.5593261718751	97.489372253418	-115.3847427368164	510.0401306152345	79.01255798339845	-85.42048645019533	461.3526916503907	102.5018539428711	-78.84475708007814	420.5538940429689	55.33660888671876	-153.2311401367188	505.8006896972657	51.29158020019533	-34.77030563354493	451.0302734375001	62.77606582641603	-24.56216049194337	395.145721435547	42.75384521484376	-79.22643280029298	458.0897827148439	46.53803634643555	34.3710060119629	711.5099487304689	781.9151000976565	208.5063476562501	703.2945556640626	792.5097656250002	267.6783447265626	703.4686279296876	712.0949096679689	257.3327331542969	681.9476318359376	723.3300170898439	313.7632751464844	675.7775268554689	290.6005859375001	396.3612670898439	685.2903442382814	299.8586120605469	447.9273681640626	676.0599365234376	251.4166412353516	437.3373107910157	671.0718994140626	265.3281860351563	491.9802856445314	615.3046875000001	94.13986968994142	472.5297851562501	642.5722045898439	58.86785888671876	488.8569335937501	584.1226806640626	67.65256500244142	494.777801513672	607.0744018554689	178.3626098632813	683.7194824218751	703.4147338867189	125.2527923583985	660.6981201171876	
378	1.570833333333333	466.4664001464845	1116.307495117188	17.86919212341309	573.7960815429689	1103.811401367188	18.09709167480469	389.8633117675782	1065.941772460938	221.3495178222657	635.9050903320314	1056.192260742188	228.451400756836	336.0686340332032	806.1577758789065	84.35829925537111	349.4306640625001	779.9068603515627	138.0670623779297	352.5038452148438	723.0034790039064	85.73628234863283	376.0191040039063	699.3244628906251	134.635986328125	419.270965576172	313.0047912597657	-142.8419952392578	416.4909057617189	279.4596557617188	-91.04895782470705	425.6494445800782	255.2772674560547	-145.8810119628907	434.4066772460939	225.5188903808594	-95.86360931396486	496.0871582031251	118.1939010620117	-247.6824340820313	527.1459960937501	78.7046585083008	-241.5830535888672	463.2183532714845	81.21341705322267	-250.1392211914063	535.9694213867189	85.06934356689455	-171.5086059570313	434.8758239746095	85.92739105224611	-192.1861572265626	518.2893676757814	98.14900970458987	-114.8429565429688	509.846405029297	79.3704071044922	-84.98846435546876	461.0959472656251	102.6065444946289	-78.27538299560548	420.3467102050782	55.87435150146486	-152.9571990966797	505.7488098144532	51.32840728759767	-34.61746215820313	450.8399047851564	62.47546005249025	-24.32511711120606	395.0285949707032	42.76407623291016	-79.12349700927736	457.9189758300782	46.24541473388673	34.50537109375001	711.7423095703126	781.0836181640627	216.4088439941407	703.5104980468751	791.9790039062502	275.5064086914063	703.1337280273439	711.4896240234376	265.5586242675782	681.5305786132814	723.2299194335939	321.9617004394532	674.7061767578126	289.0491027832032	403.6175537109376	684.4033203125001	298.3976745605469	455.1289367675782	674.9949340820314	250.0037536621094	444.6774902343751	670.3013916015626	264.0175781250001	499.2806396484376	613.1292724609376	91.82215881347658	481.3884277343751	639.9791870117189	56.83141326904298	497.9010314941407	581.6052246093751	66.99555969238283	503.6262512207032	606.6641845703126	180.2264709472657	690.6601562500001	701.9686889648439	124.258903503418	668.8148193359376	
